<svg id="visual" viewBox="0 0 960 540" width="960" height="540" xmlns="http://www.w3.org/2000/svg" xmlns:xlink="http://www.w3.org/1999/xlink" version="1.1"><g stroke-width="1" stroke-linejoin="bevel"><path d="M448.7 301L545.3 309L447.7 206Z" fill="#1c1b1a" stroke="#1c1b1a"></path><path d="M545.3 309L566.3 150L447.7 206Z" fill="#171615" stroke="#171615"></path><path d="M448.7 301L534.3 382L545.3 309Z" fill="#1c1b1a" stroke="#1c1b1a"></path><path d="M566.3 150L499.3 105L447.7 206Z" fill="#0d0c0c" stroke="#0d0c0c"></path><path d="M545.3 309L640 199L566.3 150Z" fill="#030303" stroke="#030303"></path><path d="M566.3 150L627 100L499.3 105Z" fill="#21201f" stroke="#21201f"></path><path d="M678 301L640 199L545.3 309Z" fill="#0d0c0c" stroke="#0d0c0c"></path><path d="M307 286L440.7 396L448.7 301Z" fill="#141312" stroke="#141312"></path><path d="M448.7 301L440.7 396L534.3 382Z" fill="#21201f" stroke="#21201f"></path><path d="M440.7 396L529.3 411L534.3 382Z" fill="#030303" stroke="#030303"></path><path d="M634 396L678 301L545.3 309Z" fill="#1a1917" stroke="#1a1917"></path><path d="M413.7 90L352 167L447.7 206Z" fill="#11100f" stroke="#11100f"></path><path d="M447.7 206L307 286L448.7 301Z" fill="#21201f" stroke="#21201f"></path><path d="M352 446L437.7 421L440.7 396Z" fill="#21201f" stroke="#21201f"></path><path d="M440.7 396L437.7 421L529.3 411Z" fill="#0d0c0c" stroke="#0d0c0c"></path><path d="M634 396L545.3 309L534.3 382Z" fill="#21201f" stroke="#21201f"></path><path d="M499.3 105L413.7 90L447.7 206Z" fill="#1a1917" stroke="#1a1917"></path><path d="M618 425L634 396L534.3 382Z" fill="#0d0c0c" stroke="#0d0c0c"></path><path d="M352 167L307 286L447.7 206Z" fill="#0d0c0c" stroke="#0d0c0c"></path><path d="M727.7 150L627 100L640 199Z" fill="#0d0c0c" stroke="#0d0c0c"></path><path d="M640 199L627 100L566.3 150Z" fill="#080807" stroke="#080807"></path><path d="M499.3 105L420.7 0L413.7 90Z" fill="#080807" stroke="#080807"></path><path d="M529.3 411L618 425L534.3 382Z" fill="#141312" stroke="#141312"></path><path d="M499.3 540L618 425L529.3 411Z" fill="#1f1e1c" stroke="#1f1e1c"></path><path d="M723.7 376L707.7 293L678 301Z" fill="#141312" stroke="#141312"></path><path d="M678 301L707.7 293L640 199Z" fill="#171615" stroke="#171615"></path><path d="M723.7 376L678 301L634 396Z" fill="#141312" stroke="#141312"></path><path d="M288 397L352 446L440.7 396Z" fill="#141312" stroke="#141312"></path><path d="M437.7 421L499.3 540L529.3 411Z" fill="#242321" stroke="#242321"></path><path d="M413.7 90L303 105L352 167Z" fill="#242321" stroke="#242321"></path><path d="M200.3 177L196.3 247L307 286Z" fill="#242321" stroke="#242321"></path><path d="M707.7 293L727.7 150L640 199Z" fill="#1c1b1a" stroke="#1c1b1a"></path><path d="M749.7 482L723.7 376L634 396Z" fill="#0d0c0c" stroke="#0d0c0c"></path><path d="M707.7 293L832.3 215L727.7 150Z" fill="#1a1917" stroke="#1a1917"></path><path d="M617 0L540.3 0L627 100Z" fill="#1a1917" stroke="#1a1917"></path><path d="M627 100L540.3 0L499.3 105Z" fill="#1a1917" stroke="#1a1917"></path><path d="M413.7 90L338 0L303 105Z" fill="#171615" stroke="#171615"></path><path d="M233.3 357L288 397L307 286Z" fill="#141312" stroke="#141312"></path><path d="M307 286L288 397L440.7 396Z" fill="#1c1b1a" stroke="#1c1b1a"></path><path d="M540.3 0L420.7 0L499.3 105Z" fill="#1f1e1c" stroke="#1f1e1c"></path><path d="M727.7 150L720.7 96L627 100Z" fill="#11100f" stroke="#11100f"></path><path d="M720.7 96L617 0L627 100Z" fill="#171615" stroke="#171615"></path><path d="M418.7 540L499.3 540L437.7 421Z" fill="#11100f" stroke="#11100f"></path><path d="M618 425L749.7 482L634 396Z" fill="#171615" stroke="#171615"></path><path d="M196.3 247L233.3 357L307 286Z" fill="#1c1b1a" stroke="#1c1b1a"></path><path d="M357 540L418.7 540L352 446Z" fill="#1a1917" stroke="#1a1917"></path><path d="M357 540L352 446L210.3 455Z" fill="#1c1b1a" stroke="#1c1b1a"></path><path d="M352 446L418.7 540L437.7 421Z" fill="#080807" stroke="#080807"></path><path d="M420.7 0L338 0L413.7 90Z" fill="#141312" stroke="#141312"></path><path d="M182.3 0L232.3 114L303 105Z" fill="#21201f" stroke="#21201f"></path><path d="M303 105L200.3 177L352 167Z" fill="#0d0c0c" stroke="#0d0c0c"></path><path d="M200.3 177L307 286L352 167Z" fill="#030303" stroke="#030303"></path><path d="M232.3 114L200.3 177L303 105Z" fill="#11100f" stroke="#11100f"></path><path d="M499.3 540L645 540L618 425Z" fill="#080807" stroke="#080807"></path><path d="M210.3 455L352 446L288 397Z" fill="#242321" stroke="#242321"></path><path d="M847.3 249L707.7 293L723.7 376Z" fill="#242321" stroke="#242321"></path><path d="M847.3 249L832.3 215L707.7 293Z" fill="#171615" stroke="#171615"></path><path d="M727.7 150L814.3 64L720.7 96Z" fill="#141312" stroke="#141312"></path><path d="M645 540L749.7 482L618 425Z" fill="#1c1b1a" stroke="#1c1b1a"></path><path d="M868.3 387L847.3 249L723.7 376Z" fill="#11100f" stroke="#11100f"></path><path d="M127.7 387L210.3 455L233.3 357Z" fill="#0d0c0c" stroke="#0d0c0c"></path><path d="M233.3 357L210.3 455L288 397Z" fill="#1c1b1a" stroke="#1c1b1a"></path><path d="M645 540L726.7 540L749.7 482Z" fill="#242321" stroke="#242321"></path><path d="M749.7 482L832.3 454L723.7 376Z" fill="#242321" stroke="#242321"></path><path d="M832.3 215L814.3 64L727.7 150Z" fill="#171615" stroke="#171615"></path><path d="M720.7 96L765.7 0L617 0Z" fill="#1a1917" stroke="#1a1917"></path><path d="M872.3 0L814.3 64L960 97Z" fill="#1f1e1c" stroke="#1f1e1c"></path><path d="M814.3 64L765.7 0L720.7 96Z" fill="#1f1e1c" stroke="#1f1e1c"></path><path d="M196.3 247L128.7 287L233.3 357Z" fill="#242321" stroke="#242321"></path><path d="M116.7 186L128.7 287L196.3 247Z" fill="#1c1b1a" stroke="#1c1b1a"></path><path d="M116.7 186L196.3 247L200.3 177Z" fill="#1c1b1a" stroke="#1c1b1a"></path><path d="M892.3 540L832.3 454L749.7 482Z" fill="#0d0c0c" stroke="#0d0c0c"></path><path d="M132.7 77L200.3 177L232.3 114Z" fill="#11100f" stroke="#11100f"></path><path d="M132.7 77L116.7 186L200.3 177Z" fill="#030303" stroke="#030303"></path><path d="M832.3 454L868.3 387L723.7 376Z" fill="#0d0c0c" stroke="#0d0c0c"></path><path d="M71.7 444L127.7 387L0 344Z" fill="#1c1b1a" stroke="#1c1b1a"></path><path d="M128.7 287L127.7 387L233.3 357Z" fill="#0d0c0c" stroke="#0d0c0c"></path><path d="M338 0L182.3 0L303 105Z" fill="#11100f" stroke="#11100f"></path><path d="M182.3 0L132.7 77L232.3 114Z" fill="#21201f" stroke="#21201f"></path><path d="M210.3 455L194.3 540L357 540Z" fill="#0d0c0c" stroke="#0d0c0c"></path><path d="M126.7 540L194.3 540L210.3 455Z" fill="#141312" stroke="#141312"></path><path d="M960 163L814.3 64L832.3 215Z" fill="#141312" stroke="#141312"></path><path d="M814.3 64L872.3 0L765.7 0Z" fill="#141312" stroke="#141312"></path><path d="M960 231L832.3 215L847.3 249Z" fill="#1f1e1c" stroke="#1f1e1c"></path><path d="M960 343L847.3 249L868.3 387Z" fill="#21201f" stroke="#21201f"></path><path d="M960 343L960 231L847.3 249Z" fill="#141312" stroke="#141312"></path><path d="M960 231L960 163L832.3 215Z" fill="#171615" stroke="#171615"></path><path d="M960 435L960 343L868.3 387Z" fill="#141312" stroke="#141312"></path><path d="M0 344L127.7 387L128.7 287Z" fill="#141312" stroke="#141312"></path><path d="M127.7 387L71.7 444L210.3 455Z" fill="#141312" stroke="#141312"></path><path d="M0 234L128.7 287L116.7 186Z" fill="#171615" stroke="#171615"></path><path d="M71.7 444L126.7 540L210.3 455Z" fill="#171615" stroke="#171615"></path><path d="M960 163L960 97L814.3 64Z" fill="#171615" stroke="#171615"></path><path d="M726.7 540L892.3 540L749.7 482Z" fill="#171615" stroke="#171615"></path><path d="M832.3 454L960 435L868.3 387Z" fill="#11100f" stroke="#11100f"></path><path d="M892.3 540L960 435L832.3 454Z" fill="#171615" stroke="#171615"></path><path d="M182.3 0L74.7 0L132.7 77Z" fill="#0d0c0c" stroke="#0d0c0c"></path><path d="M0 212L0 234L116.7 186Z" fill="#030303" stroke="#030303"></path><path d="M0 212L116.7 186L0 100Z" fill="#171615" stroke="#171615"></path><path d="M0 100L116.7 186L132.7 77Z" fill="#11100f" stroke="#11100f"></path><path d="M0 234L0 344L128.7 287Z" fill="#1c1b1a" stroke="#1c1b1a"></path><path d="M71.7 444L0 540L126.7 540Z" fill="#030303" stroke="#030303"></path><path d="M960 97L960 0L872.3 0Z" fill="#1c1b1a" stroke="#1c1b1a"></path><path d="M74.7 0L0 100L132.7 77Z" fill="#242321" stroke="#242321"></path><path d="M0 344L0 434L71.7 444Z" fill="#242321" stroke="#242321"></path><path d="M892.3 540L960 540L960 435Z" fill="#030303" stroke="#030303"></path><path d="M74.7 0L0 0L0 100Z" fill="#1f1e1c" stroke="#1f1e1c"></path><path d="M0 434L0 540L71.7 444Z" fill="#141312" stroke="#141312"></path></g></svg>